<mxfile host="draw.io" modified="2024-12-15T10:50:00.000Z" agent="CDS Documentation Generator" version="24.7.17">
  <diagram name="CDS Deployment Architecture" id="deployment_diagram">
    <mxGraphModel dx="1422" dy="794" grid="1" gridSize="10" guides="1" tooltips="1" connect="1" arrows="1" fold="1" page="1" pageScale="1" pageWidth="1169" pageHeight="827" math="0" shadow="0">
      <root>
        <mxCell id="0" />
        <mxCell id="1" parent="0" />
        
        <!-- Developer Workstation Node -->
        <mxCell id="dev_workstation" value="" style="rounded=1;whiteSpace=wrap;html=1;fillColor=#e1d5e7;strokeColor=#9673a6;strokeWidth=2;" vertex="1" parent="1">
          <mxGeometry x="60" y="120" width="280" height="180" as="geometry" />
        </mxCell>
        <mxCell id="dev_workstation_label" value="&lt;&lt;device&gt;&gt;&#10;Developer Workstation&#10;Windows 10/11" style="text;html=1;strokeColor=none;fillColor=none;align=center;verticalAlign=top;whiteSpace=wrap;rounded=0;fontStyle=1;" vertex="1" parent="1">
          <mxGeometry x="70" y="130" width="160" height="30" as="geometry" />
        </mxCell>
        
        <!-- CDS CLI Component -->
        <mxCell id="cds_cli" value="&lt;&lt;executable&gt;&gt;&#10;CDS CLI&#10;(Python 3.11+)" style="rounded=0;whiteSpace=wrap;html=1;fillColor=#d5e8d4;strokeColor=#82b366;" vertex="1" parent="1">
          <mxGeometry x="80" y="170" width="100" height="60" as="geometry" />
        </mxCell>
        
        <!-- Local Database -->
        <mxCell id="local_db" value="&lt;&lt;database&gt;&gt;&#10;SQLite&#10;evidence.db" style="rounded=0;whiteSpace=wrap;html=1;fillColor=#fff2cc;strokeColor=#d6b656;" vertex="1" parent="1">
          <mxGeometry x="200" y="170" width="80" height="60" as="geometry" />
        </mxCell>
        
        <!-- Configuration Files -->
        <mxCell id="config_files" value="&lt;&lt;config&gt;&gt;&#10;YAML/JSON&#10;Config Files" style="rounded=0;whiteSpace=wrap;html=1;fillColor=#f8cecc;strokeColor=#b85450;" vertex="1" parent="1">
          <mxGeometry x="80" y="240" width="100" height="50" as="geometry" />
        </mxCell>
        
        <!-- Artifacts Directory -->
        <mxCell id="artifacts" value="&lt;&lt;filesystem&gt;&gt;&#10;artifacts/&#10;Reports & Data" style="rounded=0;whiteSpace=wrap;html=1;fillColor=#f8cecc;strokeColor=#b85450;" vertex="1" parent="1">
          <mxGeometry x="200" y="240" width="100" height="50" as="geometry" />
        </mxCell>
        
        <!-- Target Application Environment -->
        <mxCell id="target_env" value="" style="rounded=1;whiteSpace=wrap;html=1;fillColor=#dae8fc;strokeColor=#6c8ebf;strokeWidth=2;" vertex="1" parent="1">
          <mxGeometry x="400" y="120" width="280" height="180" as="geometry" />
        </mxCell>
        <mxCell id="target_env_label" value="&lt;&lt;execution environment&gt;&gt;&#10;Target Application&#10;(Staging/Production)" style="text;html=1;strokeColor=none;fillColor=none;align=center;verticalAlign=top;whiteSpace=wrap;rounded=0;fontStyle=1;" vertex="1" parent="1">
          <mxGeometry x="410" y="130" width="180" height="30" as="geometry" />
        </mxCell>
        
        <!-- Web Application -->
        <mxCell id="web_app" value="&lt;&lt;web application&gt;&gt;&#10;Social Media App&#10;(React/Node.js)" style="rounded=0;whiteSpace=wrap;html=1;fillColor=#d5e8d4;strokeColor=#82b366;" vertex="1" parent="1">
          <mxGeometry x="420" y="170" width="120" height="60" as="geometry" />
        </mxCell>
        
        <!-- Source Code Repository -->
        <mxCell id="source_repo" value="&lt;&lt;repository&gt;&gt;&#10;Git Repository&#10;Source Code" style="rounded=0;whiteSpace=wrap;html=1;fillColor=#f8cecc;strokeColor=#b85450;" vertex="1" parent="1">
          <mxGeometry x="560" y="170" width="100" height="60" as="geometry" />
        </mxCell>
        
        <!-- Database -->
        <mxCell id="app_db" value="&lt;&lt;database&gt;&gt;&#10;PostgreSQL&#10;Application Data" style="rounded=0;whiteSpace=wrap;html=1;fillColor=#fff2cc;strokeColor=#d6b656;" vertex="1" parent="1">
          <mxGeometry x="420" y="240" width="120" height="50" as="geometry" />
        </mxCell>
        
        <!-- External Services Cloud -->
        <mxCell id="external_services" value="" style="rounded=1;whiteSpace=wrap;html=1;fillColor=#f5f5f5;strokeColor=#666666;strokeWidth=2;dashed=1;" vertex="1" parent="1">
          <mxGeometry x="740" y="80" width="320" height="260" as="geometry" />
        </mxCell>
        <mxCell id="external_services_label" value="&lt;&lt;cloud services&gt;&gt;&#10;External Dependencies&#10;(Internet Required)" style="text;html=1;strokeColor=none;fillColor=none;align=center;verticalAlign=top;whiteSpace=wrap;rounded=0;fontStyle=1;" vertex="1" parent="1">
          <mxGeometry x="750" y="90" width="180" height="30" as="geometry" />
        </mxCell>
        
        <!-- Semgrep Cloud -->
        <mxCell id="semgrep_service" value="&lt;&lt;SaaS&gt;&gt;&#10;Semgrep Cloud&#10;semgrep.dev" style="rounded=0;whiteSpace=wrap;html=1;fillColor=#e1d5e7;strokeColor=#9673a6;" vertex="1" parent="1">
          <mxGeometry x="760" y="140" width="100" height="50" as="geometry" />
        </mxCell>
        
        <!-- Google Cloud Gemini -->
        <mxCell id="gemini_api" value="&lt;&lt;AI API&gt;&gt;&#10;Google Gemini&#10;generativelanguage&#10;googleapis.com" style="rounded=0;whiteSpace=wrap;html=1;fillColor=#e1d5e7;strokeColor=#9673a6;" vertex="1" parent="1">
          <mxGeometry x="880" y="140" width="120" height="60" as="geometry" />
        </mxCell>
        
        <!-- NCMEC Reporting -->
        <mxCell id="ncmec_api" value="&lt;&lt;compliance API&gt;&gt;&#10;NCMEC CyberTipline&#10;api.ncmec.org" style="rounded=0;whiteSpace=wrap;html=1;fillColor=#e1d5e7;strokeColor=#9673a6;" vertex="1" parent="1">
          <mxGeometry x="760" y="210" width="120" height="50" as="geometry" />
        </mxCell>
        
        <!-- Playwright Browser Service -->
        <mxCell id="browser_service" value="&lt;&lt;browser service&gt;&gt;&#10;Playwright Browsers&#10;Chromium/Firefox" style="rounded=0;whiteSpace=wrap;html=1;fillColor=#e1d5e7;strokeColor=#9673a6;" vertex="1" parent="1">
          <mxGeometry x="900" y="220" width="120" height="50" as="geometry" />
        </mxCell>
        
        <!-- CDN/Package Repositories -->
        <mxCell id="package_repos" value="&lt;&lt;package repos&gt;&gt;&#10;PyPI, npm&#10;Package Downloads" style="rounded=0;whiteSpace=wrap;html=1;fillColor=#e1d5e7;strokeColor=#9673a6;" vertex="1" parent="1">
          <mxGeometry x="760" y="280" width="120" height="40" as="geometry" />
        </mxCell>
        
        <!-- CI/CD Environment (Optional) -->
        <mxCell id="cicd_env" value="" style="rounded=1;whiteSpace=wrap;html=1;fillColor=#fff2cc;strokeColor=#d6b656;strokeWidth=2;dashed=1;" vertex="1" parent="1">
          <mxGeometry x="60" y="380" width="620" height="120" as="geometry" />
        </mxCell>
        <mxCell id="cicd_env_label" value="&lt;&lt;CI/CD environment&gt;&gt; (Optional)&#10;Continuous Integration Pipeline&#10;GitHub Actions / Jenkins / GitLab CI" style="text;html=1;strokeColor=none;fillColor=none;align=center;verticalAlign=top;whiteSpace=wrap;rounded=0;fontStyle=1;" vertex="1" parent="1">
          <mxGeometry x="70" y="390" width="250" height="30" as="geometry" />
        </mxCell>
        
        <!-- CI Pipeline Stages -->
        <mxCell id="ci_trigger" value="&lt;&lt;trigger&gt;&gt;&#10;Git Push&#10;Pull Request" style="rounded=0;whiteSpace=wrap;html=1;fillColor=#d5e8d4;strokeColor=#82b366;" vertex="1" parent="1">
          <mxGeometry x="80" y="430" width="80" height="50" as="geometry" />
        </mxCell>
        
        <mxCell id="ci_scan" value="&lt;&lt;job&gt;&gt;&#10;CDS Static&#10;Analysis" style="rounded=0;whiteSpace=wrap;html=1;fillColor=#d5e8d4;strokeColor=#82b366;" vertex="1" parent="1">
          <mxGeometry x="180" y="430" width="80" height="50" as="geometry" />
        </mxCell>
        
        <mxCell id="ci_test" value="&lt;&lt;job&gt;&gt;&#10;Runtime&#10;Compliance&#10;Tests" style="rounded=0;whiteSpace=wrap;html=1;fillColor=#d5e8d4;strokeColor=#82b366;" vertex="1" parent="1">
          <mxGeometry x="280" y="430" width="80" height="50" as="geometry" />
        </mxCell>
        
        <mxCell id="ci_report" value="&lt;&lt;artifact&gt;&gt;&#10;Compliance&#10;Report" style="rounded=0;whiteSpace=wrap;html=1;fillColor=#f8cecc;strokeColor=#b85450;" vertex="1" parent="1">
          <mxGeometry x="380" y="430" width="80" height="50" as="geometry" />
        </mxCell>
        
        <mxCell id="ci_gate" value="&lt;&lt;gate&gt;&gt;&#10;Deployment&#10;Gate" style="rounded=0;whiteSpace=wrap;html=1;fillColor=#fff2cc;strokeColor=#d6b656;" vertex="1" parent="1">
          <mxGeometry x="480" y="430" width="80" height="50" as="geometry" />
        </mxCell>
        
        <!-- Enterprise Extension -->
        <mxCell id="enterprise_ext" value="" style="rounded=1;whiteSpace=wrap;html=1;fillColor=#f5f5f5;strokeColor=#666666;strokeWidth=2;dashed=1;" vertex="1" parent="1">
          <mxGeometry x="740" y="380" width="320" height="120" as="geometry" />
        </mxCell>
        <mxCell id="enterprise_ext_label" value="&lt;&lt;enterprise extensions&gt;&gt; (Optional)&#10;Scalable Infrastructure&#10;Production Deployment" style="text;html=1;strokeColor=none;fillColor=none;align=center;verticalAlign=top;whiteSpace=wrap;rounded=0;fontStyle=1;" vertex="1" parent="1">
          <mxGeometry x="750" y="390" width="200" height="30" as="geometry" />
        </mxCell>
        
        <!-- Central Database -->
        <mxCell id="central_db" value="&lt;&lt;database&gt;&gt;&#10;PostgreSQL&#10;Central Evidence&#10;Store" style="rounded=0;whiteSpace=wrap;html=1;fillColor=#fff2cc;strokeColor=#d6b656;" vertex="1" parent="1">
          <mxGeometry x="760" y="430" width="100" height="60" as="geometry" />
        </mxCell>
        
        <!-- Dashboard -->
        <mxCell id="dashboard" value="&lt;&lt;web app&gt;&gt;&#10;Compliance&#10;Dashboard" style="rounded=0;whiteSpace=wrap;html=1;fillColor=#d5e8d4;strokeColor=#82b366;" vertex="1" parent="1">
          <mxGeometry x="880" y="430" width="100" height="60" as="geometry" />
        </mxCell>
        
        <!-- API Gateway -->
        <mxCell id="api_gateway" value="&lt;&lt;API&gt;&gt;&#10;REST API&#10;Gateway" style="rounded=0;whiteSpace=wrap;html=1;fillColor=#e1d5e7;strokeColor=#9673a6;" vertex="1" parent="1">
          <mxGeometry x="1000" y="430" width="80" height="60" as="geometry" />
        </mxCell>
        
        <!-- Network Connections -->
        
        <!-- CDS CLI to Local Database -->
        <mxCell id="cli_to_db" style="endArrow=classic;html=1;rounded=0;" edge="1" parent="1" source="cds_cli" target="local_db">
          <mxGeometry width="50" height="50" relative="1" as="geometry">
            <mxPoint x="400" y="300" as="sourcePoint" />
            <mxPoint x="450" y="250" as="targetPoint" />
          </mxGeometry>
        </mxCell>
        <mxCell id="cli_to_db_label" value="stores&#10;evidence" style="text;html=1;strokeColor=none;fillColor=none;align=center;verticalAlign=middle;whiteSpace=wrap;rounded=0;fontSize=10;" vertex="1" parent="1">
          <mxGeometry x="185" y="185" width="35" height="25" as="geometry" />
        </mxCell>
        
        <!-- CDS CLI to Config -->
        <mxCell id="cli_to_config" style="endArrow=classic;html=1;rounded=0;" edge="1" parent="1" source="cds_cli" target="config_files">
          <mxGeometry width="50" height="50" relative="1" as="geometry">
            <mxPoint x="400" y="300" as="sourcePoint" />
            <mxPoint x="450" y="250" as="targetPoint" />
          </mxGeometry>
        </mxCell>
        <mxCell id="cli_to_config_label" value="reads" style="text;html=1;strokeColor=none;fillColor=none;align=center;verticalAlign=middle;whiteSpace=wrap;rounded=0;fontSize=10;" vertex="1" parent="1">
          <mxGeometry x="110" y="235" width="30" height="15" as="geometry" />
        </mxCell>
        
        <!-- CDS CLI to Artifacts -->
        <mxCell id="cli_to_artifacts" style="endArrow=classic;html=1;rounded=0;" edge="1" parent="1" source="cds_cli" target="artifacts">
          <mxGeometry width="50" height="50" relative="1" as="geometry">
            <mxPoint x="400" y="300" as="sourcePoint" />
            <mxPoint x="450" y="250" as="targetPoint" />
          </mxGeometry>
        </mxCell>
        <mxCell id="cli_to_artifacts_label" value="generates&#10;reports" style="text;html=1;strokeColor=none;fillColor=none;align=center;verticalAlign=middle;whiteSpace=wrap;rounded=0;fontSize=10;" vertex="1" parent="1">
          <mxGeometry x="220" y="220" width="40" height="25" as="geometry" />
        </mxCell>
        
        <!-- CDS CLI to Target App -->
        <mxCell id="cli_to_app" style="endArrow=classic;html=1;rounded=0;strokeColor=#666666;strokeWidth=2;" edge="1" parent="1" source="cds_cli" target="web_app">
          <mxGeometry width="50" height="50" relative="1" as="geometry">
            <mxPoint x="400" y="300" as="sourcePoint" />
            <mxPoint x="450" y="250" as="targetPoint" />
          </mxGeometry>
        </mxCell>
        <mxCell id="cli_to_app_label" value="runtime&#10;probing&#10;HTTPS" style="text;html=1;strokeColor=none;fillColor=none;align=center;verticalAlign=middle;whiteSpace=wrap;rounded=0;fontSize=10;" vertex="1" parent="1">
          <mxGeometry x="270" y="175" width="40" height="30" as="geometry" />
        </mxCell>
        
        <!-- CDS CLI to Source Repo -->
        <mxCell id="cli_to_repo" style="endArrow=classic;html=1;rounded=0;strokeColor=#666666;strokeWidth=2;" edge="1" parent="1" source="cds_cli" target="source_repo">
          <mxGeometry width="50" height="50" relative="1" as="geometry">
            <mxPoint x="400" y="300" as="sourcePoint" />
            <mxPoint x="450" y="250" as="targetPoint" />
          </mxGeometry>
        </mxCell>
        <mxCell id="cli_to_repo_label" value="static&#10;analysis&#10;file system" style="text;html=1;strokeColor=none;fillColor=none;align=center;verticalAlign=middle;whiteSpace=wrap;rounded=0;fontSize=10;" vertex="1" parent="1">
          <mxGeometry x="370" y="155" width="50" height="30" as="geometry" />
        </mxCell>
        
        <!-- External Service Connections -->
        
        <!-- CDS CLI to Semgrep -->
        <mxCell id="cli_to_semgrep" style="endArrow=classic;html=1;rounded=0;strokeColor=#9673a6;strokeWidth=2;dashed=1;" edge="1" parent="1" source="cds_cli" target="semgrep_service">
          <mxGeometry width="50" height="50" relative="1" as="geometry">
            <mxPoint x="400" y="300" as="sourcePoint" />
            <mxPoint x="450" y="250" as="targetPoint" />
          </mxGeometry>
        </mxCell>
        <mxCell id="cli_to_semgrep_label" value="HTTPS&#10;rules &amp; analysis" style="text;html=1;strokeColor=none;fillColor=none;align=center;verticalAlign=middle;whiteSpace=wrap;rounded=0;fontSize=10;" vertex="1" parent="1">
          <mxGeometry x="400" y="125" width="60" height="25" as="geometry" />
        </mxCell>
        
        <!-- CDS CLI to Gemini -->
        <mxCell id="cli_to_gemini" style="endArrow=classic;html=1;rounded=0;strokeColor=#9673a6;strokeWidth=2;dashed=1;" edge="1" parent="1" source="cds_cli" target="gemini_api">
          <mxGeometry width="50" height="50" relative="1" as="geometry">
            <mxPoint x="400" y="300" as="sourcePoint" />
            <mxPoint x="450" y="250" as="targetPoint" />
          </mxGeometry>
        </mxCell>
        <mxCell id="cli_to_gemini_label" value="HTTPS&#10;AI analysis" style="text;html=1;strokeColor=none;fillColor=none;align=center;verticalAlign=middle;whiteSpace=wrap;rounded=0;fontSize=10;" vertex="1" parent="1">
          <mxGeometry x="550" y="130" width="50" height="25" as="geometry" />
        </mxCell>
        
        <!-- CI/CD Pipeline Flow -->
        <mxCell id="ci_flow1" style="endArrow=classic;html=1;rounded=0;" edge="1" parent="1" source="ci_trigger" target="ci_scan">
          <mxGeometry width="50" height="50" relative="1" as="geometry">
            <mxPoint x="400" y="500" as="sourcePoint" />
            <mxPoint x="450" y="450" as="targetPoint" />
          </mxGeometry>
        </mxCell>
        
        <mxCell id="ci_flow2" style="endArrow=classic;html=1;rounded=0;" edge="1" parent="1" source="ci_scan" target="ci_test">
          <mxGeometry width="50" height="50" relative="1" as="geometry">
            <mxPoint x="400" y="500" as="sourcePoint" />
            <mxPoint x="450" y="450" as="targetPoint" />
          </mxGeometry>
        </mxCell>
        
        <mxCell id="ci_flow3" style="endArrow=classic;html=1;rounded=0;" edge="1" parent="1" source="ci_test" target="ci_report">
          <mxGeometry width="50" height="50" relative="1" as="geometry">
            <mxPoint x="400" y="500" as="sourcePoint" />
            <mxPoint x="450" y="450" as="targetPoint" />
          </mxGeometry>
        </mxCell>
        
        <mxCell id="ci_flow4" style="endArrow=classic;html=1;rounded=0;" edge="1" parent="1" source="ci_report" target="ci_gate">
          <mxGeometry width="50" height="50" relative="1" as="geometry">
            <mxPoint x="400" y="500" as="sourcePoint" />
            <mxPoint x="450" y="450" as="targetPoint" />
          </mxGeometry>
        </mxCell>
        
        <!-- Enterprise Extensions -->
        <mxCell id="cli_to_central_db" style="endArrow=classic;html=1;rounded=0;strokeColor=#d6b656;strokeWidth=2;dashed=1;" edge="1" parent="1" source="cds_cli" target="central_db">
          <mxGeometry width="50" height="50" relative="1" as="geometry">
            <mxPoint x="400" y="300" as="sourcePoint" />
            <mxPoint x="450" y="250" as="targetPoint" />
          </mxGeometry>
        </mxCell>
        
        <!-- Deployment Notes -->
        <mxCell id="deployment_notes" value="&lt;b&gt;Deployment Patterns:&lt;/b&gt;&#10;&#10;&lt;b&gt;Local Development:&lt;/b&gt;&#10;• Developer workstation only&#10;• SQLite database&#10;• Direct external API access&#10;&#10;&lt;b&gt;CI/CD Integration:&lt;/b&gt;&#10;• Automated compliance checks&#10;• Report generation&#10;• Deployment gates&#10;&#10;&lt;b&gt;Enterprise Scale:&lt;/b&gt;&#10;• Central evidence database&#10;• Multi-user dashboard&#10;• API-driven integration" style="rounded=1;whiteSpace=wrap;html=1;fillColor=#f0f0f0;strokeColor=#666666;align=left;verticalAlign=top;" vertex="1" parent="1">
          <mxGeometry x="60" y="520" width="280" height="140" as="geometry" />
        </mxCell>
        
        <!-- Network Requirements -->
        <mxCell id="network_requirements" value="&lt;b&gt;Network Requirements:&lt;/b&gt;&#10;&#10;&lt;b&gt;Required:&lt;/b&gt;&#10;• HTTPS outbound (443)&#10;• DNS resolution&#10;• Gemini API access&#10;&#10;&lt;b&gt;Optional:&lt;/b&gt;&#10;• Semgrep Cloud access&#10;• Package repository access&#10;• NCMEC reporting endpoints&#10;&#10;&lt;b&gt;Firewall:&lt;/b&gt;&#10;• Allow googleapis.com&#10;• Allow semgrep.dev (optional)&#10;• Allow target app domains" style="rounded=1;whiteSpace=wrap;html=1;fillColor=#f0f0f0;strokeColor=#666666;align=left;verticalAlign=top;" vertex="1" parent="1">
          <mxGeometry x="360" y="520" width="280" height="140" as="geometry" />
        </mxCell>
        
        <!-- Security Considerations -->
        <mxCell id="security_notes" value="&lt;b&gt;Security Considerations:&lt;/b&gt;&#10;&#10;&lt;b&gt;API Keys:&lt;/b&gt;&#10;• Google Cloud credentials&#10;• Store in environment vars&#10;• Use service accounts&#10;&#10;&lt;b&gt;Data Protection:&lt;/b&gt;&#10;• Evidence database encryption&#10;• Secure artifact storage&#10;• Network transport encryption&#10;&#10;&lt;b&gt;Access Control:&lt;/b&gt;&#10;• CLI user authentication&#10;• Role-based report access&#10;• Audit logging" style="rounded=1;whiteSpace=wrap;html=1;fillColor=#f0f0f0;strokeColor=#666666;align=left;verticalAlign=top;" vertex="1" parent="1">
          <mxGeometry x="660" y="520" width="280" height="140" as="geometry" />
        </mxCell>
        
        <!-- Legend -->
        <mxCell id="legend" value="&lt;b&gt;Legend:&lt;/b&gt;&#10;━━━━ Required Connection&#10;┅┅┅┅ Optional/Cloud Service&#10;□ Local Component&#10;◇ External Service&#10;⬚ Enterprise Extension" style="rounded=1;whiteSpace=wrap;html=1;fillColor=#ffffff;strokeColor=#000000;align=left;verticalAlign=top;" vertex="1" parent="1">
          <mxGeometry x="970" y="520" width="170" height="100" as="geometry" />
        </mxCell>
        
      </root>
    </mxGraphModel>
  </diagram>
</mxfile>
